<svg width="24.000000" height="21.000000" viewBox="0 0 24 21" fill="none" xmlns="http://www.w3.org/2000/svg" xmlns:xlink="http://www.w3.org/1999/xlink">
	<desc>
			Created with Pixso.
	</desc>
	<defs/>
	<path id="Vector" d="M17.62 -0.6C16.32 -0.6 15.12 -0.19 14.07 0.63C13.06 1.41 12.39 2.4 12 3.12C11.6 2.4 10.93 1.41 9.92 0.63C8.87 -0.19 7.67 -0.6 6.37 -0.6C2.74 -0.6 0 2.37 0 6.32C0 10.57 3.41 13.49 8.59 17.9C9.47 18.65 10.47 19.5 11.5 20.4C11.64 20.52 11.81 20.59 12 20.59C12.18 20.59 12.35 20.52 12.49 20.4C13.52 19.5 14.52 18.65 15.4 17.9C20.58 13.49 24 10.57 24 6.32C24 2.37 21.25 -0.6 17.62 -0.6Z" fill="#352C80" fill-opacity="1.000000" fill-rule="nonzero"/>
</svg>
