<svg width="19.000000" height="19.000000" viewBox="0 0 19 19" fill="none" xmlns="http://www.w3.org/2000/svg" xmlns:xlink="http://www.w3.org/1999/xlink">
	<desc>
			Created with Pixso.
	</desc>
	<defs>
		<clipPath id="clip354_2605">
			<rect id="Frame" width="19.000000" height="19.000000" fill="white" fill-opacity="0"/>
		</clipPath>
	</defs>
	<rect id="Frame" width="19.000000" height="19.000000" fill="#FFFFFF" fill-opacity="0"/>
	<g clip-path="url(#clip354_2605)">
		<path id="Vector" d="M19 9.5C19 4.25293 14.7466 0 9.5 0C4.25342 0 0 4.25293 0 9.5C0 14.7461 4.25342 19 9.5 19C14.7466 19 19 14.7461 19 9.5Z" fill="#8D303A" fill-opacity="1.000000" fill-rule="nonzero"/>
		<path id="Vector" d="M12.0718 13.7695C12.0464 13.7314 12.0078 13.7041 11.9639 13.6924C11.9199 13.6807 11.873 13.6846 11.832 13.7041C10.8906 14.1494 9.82227 14.6211 9.6123 14.6621C9.60303 14.6533 9.59521 14.6436 9.58789 14.6338C9.55908 14.5957 9.54541 14.5449 9.54541 14.4805C9.54541 13.9473 9.94727 12.3281 10.7397 9.66602C11.4082 7.42871 11.4854 6.96582 11.4854 6.8125C11.4854 6.5752 11.3945 6.37402 11.2227 6.23242C11.0591 6.09766 10.8311 6.0293 10.5439 6.0293C10.0669 6.0293 9.51416 6.20996 8.85352 6.58301C8.21338 6.94434 7.5 7.55566 6.73242 8.40137C6.70312 8.43359 6.68555 8.47461 6.68311 8.51758C6.68018 8.56152 6.69238 8.60449 6.71729 8.63965C6.74219 8.67578 6.77832 8.70117 6.81982 8.71387C6.86133 8.72559 6.90625 8.72363 6.94629 8.70703C7.21582 8.59766 8.56982 8.04297 8.76758 7.91895C8.9292 7.81738 9.06885 7.76562 9.18359 7.76562C9.1875 7.76562 9.19092 7.7666 9.19385 7.7666C9.19531 7.77441 9.19678 7.78516 9.19678 7.80176C9.19678 7.91895 9.17285 8.05664 9.12549 8.21191C7.97168 11.9512 7.41064 14.2432 7.41064 15.2197C7.41064 15.5645 7.50635 15.8418 7.69531 16.0439C7.8877 16.251 8.14697 16.3555 8.4668 16.3555C8.80713 16.3555 9.22168 16.2129 9.7334 15.9199C10.229 15.6377 10.9849 15.0146 12.0449 14.0166C12.0781 13.9854 12.0991 13.9434 12.104 13.8975C12.1089 13.8525 12.0977 13.8066 12.0718 13.7695ZM12.0352 2.93652C11.8462 2.74316 11.605 2.64551 11.3179 2.64551C10.96 2.64551 10.6484 2.78711 10.3921 3.06543C10.1396 3.33984 10.0112 3.67676 10.0112 4.06543C10.0112 4.37305 10.1055 4.62793 10.2915 4.82324C10.48 5.02148 10.7183 5.12207 10.999 5.12207C11.3423 5.12207 11.6519 4.97266 11.9199 4.67773C12.1836 4.38867 12.3169 4.04883 12.3169 3.66699C12.3169 3.37402 12.2222 3.12793 12.0352 2.93652Z" fill="#FFFFFF" fill-opacity="1.000000" fill-rule="nonzero"/>
	</g>
</svg>
