<svg width="22.000000" height="21.000000" viewBox="0 0 22 21" fill="none" xmlns="http://www.w3.org/2000/svg" xmlns:xlink="http://www.w3.org/1999/xlink">
	<desc>
			Created with Pixso.
	</desc>
	<defs/>
	<path id="Vector" d="M10.96 19.13L2.74 19.13C2.23 19.13 1.82 18.72 1.82 18.22L1.82 1.77C1.82 1.27 2.23 0.86 2.74 0.86L10.96 0.86C11.46 0.86 11.87 0.45 11.87 -0.05C11.87 -0.56 11.46 -0.97 10.96 -0.97L2.74 -0.97C1.22 -0.97 0 0.26 0 1.77L0 18.22C0 19.73 1.22 20.96 2.74 20.96L10.96 20.96C11.46 20.96 11.87 20.55 11.87 20.04C11.87 19.54 11.46 19.13 10.96 19.13Z" fill="#352C80" fill-opacity="1.000000" fill-rule="nonzero"/>
	<path id="Vector" d="M21.72 9.34L16.17 3.86C15.81 3.51 15.23 3.51 14.88 3.87C14.52 4.23 14.53 4.81 14.89 5.16L18.85 9.08L8.22 9.08C7.71 9.08 7.3 9.49 7.3 10C7.3 10.5 7.71 10.91 8.22 10.91L18.85 10.91L14.89 14.83C14.53 15.18 14.52 15.76 14.88 16.12C14.96 16.2 15.06 16.27 15.17 16.32C15.29 16.37 15.41 16.39 15.53 16.39C15.76 16.39 15.99 16.3 16.17 16.13L21.72 10.65C21.81 10.56 21.88 10.46 21.92 10.35C21.97 10.24 22 10.12 22 9.99C22 9.75 21.9 9.52 21.72 9.34Z" fill="#352C80" fill-opacity="1.000000" fill-rule="nonzero"/>
</svg>
